<svg xmlns="http://www.w3.org/2000/svg" width="210mm" height="297mm" viewBox="0 0 210 297">
  <rect width="210" height="297" fill="#ffffff"/>
  <text x="16" y="18" font-family="Arial, sans-serif" font-size="5" fill="#1c1917">Starter Gift Box - offline unfold preview</text>
  <g class="layer-baked">
    <rect x="65" y="88" width="28" height="28" fill="#fef3c7"/>
    <rect x="93" y="88" width="28" height="28" fill="#fde68a"/>
    <rect x="121" y="88" width="28" height="28" fill="#fef3c7"/>
    <rect x="93" y="60" width="28" height="28" fill="#fffbeb"/>
    <rect x="93" y="116" width="28" height="28" fill="#fffbeb"/>
    <rect x="93" y="144" width="28" height="28" fill="#fde68a"/>
  </g>
  <g class="layer-lines" fill="none" stroke="#1c1917" stroke-width="0.45">
    <path d="M65 88 H149 V116 H121 V172 H93 V116 H65 Z"/>
    <path d="M93 60 H121 V88 H93 Z"/>
    <path d="M93 88 V172"/>
    <path d="M121 88 V172"/>
    <path d="M65 116 H149"/>
    <path d="M93 144 H121"/>
  </g>
  <g class="layer-seams" fill="none" stroke="#e85d4c" stroke-width="0.45">
    <line class="seam-edge seam-cut" x1="65" y1="88" x2="149" y2="88"/>
    <line class="seam-edge seam-cut" x1="149" y1="88" x2="149" y2="116"/>
    <line class="seam-edge seam-cut" x1="121" y1="172" x2="93" y2="172"/>
  </g>
  <g font-family="Arial, sans-serif" font-size="4" fill="#1c1917">
    <text x="103" y="105">1</text>
    <text x="75" y="105">2</text>
    <text x="131" y="105">3</text>
    <text x="103" y="78">4</text>
    <text x="103" y="133">5</text>
    <text x="103" y="161">6</text>
  </g>
  <text x="16" y="276" font-family="Arial, sans-serif" font-size="4" fill="#78716c">Dashed-free simplified net for preview. Regenerate with API for tabs, labels, PDF, and ZIP.</text>
</svg>
