<svg xmlns="http://www.w3.org/2000/svg" width="210mm" height="297mm" viewBox="0 0 210 297">
  <rect width="210" height="297" fill="#ffffff"/>
  <text x="16" y="18" font-family="Arial, sans-serif" font-size="5" fill="#1c1917">Pyramid Table Marker - offline unfold preview</text>
  <g class="layer-baked">
    <rect x="86" y="110" width="38" height="38" fill="#dbeafe"/>
    <polygon points="86,110 105,72 124,110" fill="#eff6ff"/>
    <polygon points="124,110 162,129 124,148" fill="#bfdbfe"/>
    <polygon points="124,148 105,186 86,148" fill="#dbeafe"/>
    <polygon points="86,148 48,129 86,110" fill="#bfdbfe"/>
  </g>
  <g class="layer-lines" fill="none" stroke="#1c1917" stroke-width="0.45">
    <rect x="86" y="110" width="38" height="38"/>
    <polygon points="86,110 105,72 124,110"/>
    <polygon points="124,110 162,129 124,148"/>
    <polygon points="124,148 105,186 86,148"/>
    <polygon points="86,148 48,129 86,110"/>
    <line x1="86" y1="110" x2="124" y2="148"/>
    <line x1="124" y1="110" x2="86" y2="148"/>
  </g>
  <g class="layer-seams" fill="none" stroke="#e85d4c" stroke-width="0.45">
    <line class="seam-edge seam-cut" x1="86" y1="110" x2="105" y2="72"/>
    <line class="seam-edge seam-cut" x1="162" y1="129" x2="124" y2="148"/>
    <line class="seam-edge seam-cut" x1="105" y1="186" x2="86" y2="148"/>
  </g>
  <g font-family="Arial, sans-serif" font-size="4" fill="#1c1917">
    <text x="103" y="131">1</text>
    <text x="103" y="97">2</text>
    <text x="137" y="130">3</text>
    <text x="103" y="166">4</text>
    <text x="72" y="130">5</text>
  </g>
  <text x="16" y="276" font-family="Arial, sans-serif" font-size="4" fill="#78716c">Simplified preview net. Use Generate Template with the API running for exact layout and exports.</text>
</svg>
